/* XPM */
static char *Free_Converter_com_bitcoin16_88904846[] = {
/* columns rows colors chars-per-pixel */
"16 16 17 1 ",
"  c #E6688F",
". c #E76B8F",
"X c #E86F8F",
"o c #E9748E",
"O c #EB798E",
"+ c #ED7E8E",
"@ c #EE838E",
"# c #F0898D",
"$ c #F28F8D",
"% c #F3948D",
"& c #F5998D",
"* c #F79E8D",
"= c #F8A38C",
"- c #F9A78C",
"; c #FAAA8C",
": c #FBAD8C",
"> c None",
/* pixels */
">>>:::::::::>>>>",
">>>;;>>>>>;;;;>>",
">>>->>>>>>>>--->",
"============>==>",
"*>>*>>>>>>>*>>**",
"&>>&>>>>>>>&&>&&",
"%>>%>>>>>>>>%>%%",
"$>>$>>>>>>>$$>$$",
"#>>##>>>>>##>>##",
"@>>@@@@@@@@>>@@>",
"+>>+>>>++>>>+++>",
"O>>O>>>>O>>OO>>>",
"o>>o>>>>oo>>o>>>",
"X>>X>>>>>XX>XX>>",
"..>.>>>>>>.>>..>",
"   .>>>>>> .>>.>"
};
