/* XPM */
static char *Free_Converter_com_bitcoin64_42815009[] = {
/* columns rows colors chars-per-pixel */
"64 64 52 1 ",
"  c #E5668F",
". c #E5678F",
"X c #E6678F",
"o c #E6688F",
"O c #E66A8F",
"+ c #E76B8F",
"@ c #E76C8F",
"# c #E76D8F",
"$ c #E86E8F",
"% c #E9718E",
"& c #E8708F",
"* c #E9738E",
"= c #EA748E",
"- c #EA768E",
"; c #EB778E",
": c #EB798E",
"> c #EC7A8E",
", c #EC7C8E",
"< c #ED7E8E",
"1 c #ED7F8E",
"2 c #EE818E",
"3 c #EE838E",
"4 c #EF858E",
"5 c #EF868E",
"6 c #F08A8D",
"7 c #F0888E",
"8 c #F18C8D",
"9 c #F18D8D",
"0 c #F28F8D",
"q c #F2918D",
"w c #F3938D",
"e c #F3948D",
"r c #F4968D",
"t c #F4988D",
"y c #F5998D",
"u c #F59B8D",
"i c #F69C8D",
"p c #F69E8D",
"a c #F79F8D",
"s c #F7A18C",
"d c #F8A28C",
"f c #F8A48C",
"g c #F9A58C",
"h c #F9A68C",
"j c #F9A78C",
"k c #FAA88C",
"l c #FAAA8C",
"z c #FAAB8C",
"x c #FBAB8C",
"c c #FBAC8C",
"v c #FBAD8C",
"b c None",
/* pixels */
"bbbbbbbbbbbbbbbbbbbbbbbbbbbbbbbbbbbbbbbbbbbbbbbbbbbbbbbbbbbbbbbb",
"bbbbbbbbbbbbbbbbbbbbbbbbbbbbbbbbbbbbbbbbbbbbbbbbbbbbbbbbbbbbbbbb",
"bbbbbbbbbbbbbbbbbbbbbbbbbbbbbbbbbbbbbbbbbbbbbbbbbbbbbbbbbbbbbbbb",
"bbbbbbbbbbbbbbbbbbbbbbbbbbbbbbbbbbbbbbbbbbbbbbbbbbbbbbbbbbbbbbbb",
"bbbbbbbbbbbbbbbbbbbbbbbbbbbbbbbbbbbbbbbbbbbbbbbbbbbbbbbbbbbbbbbb",
"bbbbbbbbbbbbbbbbbbbbbbbbbbbbbbbbbbbbbbbbbbbbbbbbbbbbbbbbbbbbbbbb",
"bbbbbbbbbbbbbbbbvvvcccccvvvvvvvvvvvvvvvbbbbbbbbbbbbbbbbbbbbbbbbb",
"bbbbbbbbbbbbbbbbcccccccccccccccccccccccccccbbbbbbbbbbbbbbbbbbbbb",
"bbbbbbbbbbbbbbbblckclclclclclclcccclclclclclcbbbbbbbbbbbbbbbbbbb",
"bbbbbbbbbbbbbbbbccccclclclclclclcclclclclclclclbbbbbbbbbbbbbbbbb",
"bbbbbbbbbbbbbbbbkcckllllllllllllllllllllllllclkkbbbbbbbbbbbbbbbb",
"bbbbbbbbbbbbbbbbkkkkbbbbbbbbbbbbbbbbbbbbllflkkkkflbbbbbbbbbbbbbb",
"bbbbbbbbbbbbbbbblflkbbbbbbbbbbbbbbbbbbbbbbflflkllllbbbbbbbbbbbbb",
"bbbbbbbbbbbbbbbbflffbbbbbbbbbbbbbbbbbbbbbbbbfffkfffbbbbbbbbbbbbb",
"bbbbbbbbbbbbbbbbffffbbbbbbbbbbbbbbbbbbbbbbbbbfkffkffbbbbbbbbbbbb",
"bbbbbbbffffffffffffffffffffffffffffffffbbbbbbbfffffffbbbbbbbbbbb",
"bbbbbbbdssssfdddddssssddddddddddddddddssdbbbbbbdddddssbbbbbbbbbb",
"bbbbbbbssssssssssssasssssssssssssssssssssssbbbbbddddsabbbbbbbbbb",
"bbbbbbbasaaasaaaaaaaaasaaaaaaaaaaaaaaaaaaaaabbbbbaaaaasbbbbbbbbb",
"bbbbbbbauauabbbbaaaaabbbbbbbbbbbbbbbbaaaaaaaabbbbaaaaaabbbbbbbbb",
"bbbbbbbayayabbbbayyabbbbbbbbbbbbbbbbbbbbyaayaabbbbyayaubbbbbbbbb",
"bbbbbbbyyaaybbbbyyaybbbbbbbbbbbbbbbbbbbbbyayyybbbbayyyuybbbbbbbb",
"bbbbbbbyyyyybbbbyyyybbbbbbbbbbbbbbbbbbbbbbyyyyybbbyyyyyybbbbbbbb",
"bbbbbbbyyyeybbbbyytybbbbbbbbbbbbbbbbbbbbbbttyyybbbbyyyttbbbbbbbb",
"bbbbbbbeyeeybbbbttqtbbbbbbbbbbbbbbbbbbbbbbbeeyebbbbeeyeebbbbbbbb",
"bbbbbbbeeeeebbbbqttqbbbbbbbbbbbbbbbbbbbbbbbeeeebbbbeeeeebbbbbbbb",
"bbbbbbbqwwewbbbbtqqqbbbbbbbbbbbbbbbbbbbbbbbwewwwbbbweeeebbbbbbbb",
"bbbbbbbqqqqqbbbb8qqqbbbbbbbbbbbbbbbbbbbbbbbqwqqbbbbqqwqqbbbbbbbb",
"bbbbbbbq8wqqbbbbq8qqbbbbbbbbbbbbbbbbbbbbbbbqqw8bbbbwqq8qbbbbbbbb",
"bbbbbbb88888bbbb8888bbbbbbbbbbbbbbbbbbbbbbb8888bbbb88888bbbbbbbb",
"bbbbbbb88888bbbb8888bbbbbbbbbbbbbbbbbbbbbb88888bbbb88888bbbbbbbb",
"bbbbbbb66666bbbb8866bbbbbbbbbbbbbbbbbbbbb66666bbbb666666bbbbbbbb",
"bbbbbbb67777bbbb7777bbbbbbbbbbbbbbbbbbbb667677bbbb77777bbbbbbbbb",
"bbbbbbb47377bbbb4447bbbbbbbbbbbbbbbbbb4444444bbbb444774bbbbbbbbb",
"bbbbbbb43773bbbb4473733744444434444444444444bbbbb444727bbbbbbbbb",
"bbbbbbb33333bbbb333333333333333333333334333bbbbb334433bbbbbbbbbb",
"bbbbbbb3<33<bbbb33<33<33333<<333333<333<33bbbbbb332222bbbbbbbbbb",
"bbbbbbb<<<<<bbbb<<<<<3<<<<<<3<<<<<<3<<<<bbbbbbb3,,,33bbbbbbbbbbb",
"bbbbbbb<<<<<bbbb<<<<<bbbbbbb<<<<<<bbbbbbbbbbbb<<,3,,,bbbbbbbbbbb",
"bbbbbbb<><><bbbb:<><bbbbbbbb<:<>>>bbbbbbbbbbb<,,,,,,bbbbbbbbbbbb",
"bbbbbbb><;<<bbbb>>::bbbbbbbbb>>>>>>bbbbbbbbb::::>>>bbbbbbbbbbbbb",
"bbbbbbb:;;;;bbbb::;;bbbbbbbbbb:::::bbbbbbb:::;::::bbbbbbbbbbbbbb",
"bbbbbbb;;;;-bbbb:;;;bbbbbbbbbb;;;;:;bbbb;;;;;;;;;bbbbbbbbbbbbbbb",
"bbbbbbb;----bbbb;;;;bbbbbbbbbbb;;;;;;bbbb;;;;;;;bbbbbbbbbbbbbbbb",
"bbbbbbb;===-bbbb;&;&bbbbbbbbbbbb&&&;&bbbb;;&;&=bbbbbbbbbbbbbbbbb",
"bbbbbbb&&;&=bbbb&;&;bbbbbbbbbbbb&;;;&;bbbb&;&;%=bbbbbbbbbbbbbbbb",
"bbbbbbb&&=&&bbbb&=&&bbbbbbbbbbbbb&&&&&=bbbb&==%=&bbbbbbbbbbbbbbb",
"bbbbbbb&&&&&bbbb&&&&bbbbbbbbbbbbb&&&&&&bbbb&$&$$&bbbbbbbbbbbbbbb",
"bbbbbbb$$$$$bbbb$$$$bbbbbbbbbbbbbb$$$$$$bbbb$$$$$$bbbbbbbbbbbbbb",
"bbbbbbb$$$o$bbbb####bbbbbbbbbbbbbbb######bbbb###$#bbbbbbbbbbbbbb",
"bbbbbbbo$o$$bbbb+#++bbbbbbbbbbbbbbb#+#$+#bbbb#+++##bbbbbbbbbbbbb",
"bbbbbbb$o$o$bbbb++++bbbbbbbbbbbbbbbb++$o++bbbb++++++bbbbbbbbbbbb",
"bbbbbbboO$oobbbboo$+bbbbbbbbbbbbbbbbboo$++bbbbb+++oobbbbbbbbbbbb",
"bbbbbbboOooooooooo+.bbbbbbbbbbbbbbbbbooo.++bbbb+..ooobbbbbbbbbbb",
"bbbbbbbX.XXXXXoo.X..bbbbbbbbbbbbbbbbbbX.....bbbb...Xo.bbbbbbbbbb",
"bbbbbbbo.....XXX....bbbbbbbbbbbbbbbbbb......bbbb....+.bbbbbbbbbb",
"bbbbbbbX..XXXXXX....bbbbbbbbbbbbbbbbbbb......bbbb......bbbbbbbbb",
"bbbbbbbbbbbbbbbbbbbbbbbbbbbbbbbbbbbbbbbbbbbbbbbbbbbbbbbbbbbbbbbb",
"bbbbbbbbbbbbbbbbbbbbbbbbbbbbbbbbbbbbbbbbbbbbbbbbbbbbbbbbbbbbbbbb",
"bbbbbbbbbbbbbbbbbbbbbbbbbbbbbbbbbbbbbbbbbbbbbbbbbbbbbbbbbbbbbbbb",
"bbbbbbbbbbbbbbbbbbbbbbbbbbbbbbbbbbbbbbbbbbbbbbbbbbbbbbbbbbbbbbbb",
"bbbbbbbbbbbbbbbbbbbbbbbbbbbbbbbbbbbbbbbbbbbbbbbbbbbbbbbbbbbbbbbb",
"bbbbbbbbbbbbbbbbbbbbbbbbbbbbbbbbbbbbbbbbbbbbbbbbbbbbbbbbbbbbbbbb",
"bbbbbbbbbbbbbbbbbbbbbbbbbbbbbbbbbbbbbbbbbbbbbbbbbbbbbbbbbbbbbbbb"
};
