/* XPM */
static char *Free_Converter_com_bitcoin128_85435030[] = {
/* columns rows colors chars-per-pixel */
"128 128 79 1 ",
"  c #E5658F",
". c #E5668F",
"X c #E6678F",
"o c #E6688F",
"O c #E6698F",
"+ c #E76A8F",
"@ c #E76B8F",
"# c #E76C8F",
"$ c #E76D8F",
"% c #E86E8F",
"& c #E86F8F",
"* c #E9718E",
"= c #E8708F",
"- c #E9728E",
"; c #E9738E",
": c #EA748E",
"> c #EA758E",
", c #EA768E",
"< c #EA778E",
"1 c #EB788E",
"2 c #EB798E",
"3 c #EB7A8E",
"4 c #EC7B8E",
"5 c #EC7C8E",
"6 c #EC7D8E",
"7 c #ED7E8E",
"8 c #ED7F8E",
"9 c #ED808E",
"0 c #ED818E",
"q c #EE818E",
"w c #EE828E",
"e c #EE838E",
"r c #EE848E",
"t c #EF858E",
"y c #EF868E",
"u c #EF878E",
"i c #F0898D",
"p c #F08A8D",
"a c #F18B8D",
"s c #F0888E",
"d c #F0898E",
"f c #F18C8D",
"g c #F18D8D",
"h c #F28E8D",
"j c #F28F8D",
"k c #F2908D",
"l c #F2918D",
"z c #F3918D",
"x c #F3928D",
"c c #F3938D",
"v c #F3948D",
"b c #F4958D",
"n c #F4968D",
"m c #F4978D",
"M c #F5988D",
"N c #F5998D",
"B c #F59A8D",
"V c #F69B8D",
"C c #F69C8D",
"Z c #F69D8D",
"A c #F69E8D",
"S c #F79F8D",
"D c #F7A18C",
"F c #F7A08D",
"G c #F7A18D",
"H c #F8A28C",
"J c #F8A38C",
"K c #F8A48C",
"L c #F8A58C",
"P c #F9A58C",
"I c #F9A68C",
"U c #F9A78C",
"Y c #F9A88C",
"T c #FAA98C",
"R c #FAAA8C",
"E c #FAAB8C",
"W c #FBAC8C",
"Q c #FBAD8C",
"! c None",
/* pixels */
"!!!!!!!!!!!!!!!!!!!!!!!!!!!!!!!!!!!!!!!!!!!!!!!!!!!!!!!!!!!!!!!!!!!!!!!!!!!!!!!!!!!!!!!!!!!!!!!!!!!!!!!!!!!!!!!!!!!!!!!!!!!!!!!!",
"!!!!!!!!!!!!!!!!!!!!!!!!!!!!!!!!!!!!!!!!!!!!!!!!!!!!!!!!!!!!!!!!!!!!!!!!!!!!!!!!!!!!!!!!!!!!!!!!!!!!!!!!!!!!!!!!!!!!!!!!!!!!!!!!",
"!!!!!!!!!!!!!!!!!!!!!!!!!!!!!!!!!!!!!!!!!!!!!!!!!!!!!!!!!!!!!!!!!!!!!!!!!!!!!!!!!!!!!!!!!!!!!!!!!!!!!!!!!!!!!!!!!!!!!!!!!!!!!!!!",
"!!!!!!!!!!!!!!!!!!!!!!!!!!!!!!!!!!!!!!!!!!!!!!!!!!!!!!!!!!!!!!!!!!!!!!!!!!!!!!!!!!!!!!!!!!!!!!!!!!!!!!!!!!!!!!!!!!!!!!!!!!!!!!!!",
"!!!!!!!!!!!!!!!!!!!!!!!!!!!!!!!!!!!!!!!!!!!!!!!!!!!!!!!!!!!!!!!!!!!!!!!!!!!!!!!!!!!!!!!!!!!!!!!!!!!!!!!!!!!!!!!!!!!!!!!!!!!!!!!!",
"!!!!!!!!!!!!!!!!!!!!!!!!!!!!!!!!!!!!!!!!!!!!!!!!!!!!!!!!!!!!!!!!!!!!!!!!!!!!!!!!!!!!!!!!!!!!!!!!!!!!!!!!!!!!!!!!!!!!!!!!!!!!!!!!",
"!!!!!!!!!!!!!!!!!!!!!!!!!!!!!!!!!!!!!!!!!!!!!!!!!!!!!!!!!!!!!!!!!!!!!!!!!!!!!!!!!!!!!!!!!!!!!!!!!!!!!!!!!!!!!!!!!!!!!!!!!!!!!!!!",
"!!!!!!!!!!!!!!!!!!!!!!!!!!!!!!!!!!!!!!!!!!!!!!!!!!!!!!!!!!!!!!!!!!!!!!!!!!!!!!!!!!!!!!!!!!!!!!!!!!!!!!!!!!!!!!!!!!!!!!!!!!!!!!!!",
"!!!!!!!!!!!!!!!!!!!!!!!!!!!!!QQQQQQQQQQQQQQQQQQQQQQQQQQQQQQQQQQQQQQQQQQQQQQQQQQQQQ!!!!!!!!!!!!!!!!!!!!!!!!!!!!!!!!!!!!!!!!!!!!!!",
"!!!!!!!!!!!!!!!!!!!!!!!!!!!!!QQQQQQQQQQQQQQQQQQQQQQQQQQQQQQQQQQQQQQQQQQQQQQQQQQQQQQQQQ!!!!!!!!!!!!!!!!!!!!!!!!!!!!!!!!!!!!!!!!!!",
"!!!!!!!!!!!!!!!!!!!!!!!!!!!!!WQWWWWWWWWWWWWWWWWWWWQWWWWWWWWWWWWWWWWWWWWWQWWWWWWWWWWWQWWWQW!!!!!!!!!!!!!!!!!!!!!!!!!!!!!!!!!!!!!!",
"!!!!!!!!!!!!!!!!!!!!!!!!!!!!!WWWWWWWWWWWWWWWWWWWWWWWWWWWWWWWWWWWWWWWWWWWWWWWWWWWWWWWWWWWWWWQ!!!!!!!!!!!!!!!!!!!!!!!!!!!!!!!!!!!!",
"!!!!!!!!!!!!!!!!!!!!!!!!!!!!!WWWQQWQWQQQWWWWWWWWWWQQWWQQWWQQWWQQWQWWQQWQWQWQWWWWQQWQWQWQWWWWWW!!!!!!!!!!!!!!!!!!!!!!!!!!!!!!!!!!",
"!!!!!!!!!!!!!!!!!!!!!!!!!!!!!WWWEQYQYQYEYQQYWUYWWWYWYWEQQYQYQYQYYQQYEQYQYQYQWWWWEQYQYQYQWWWWYWWW!!!!!!!!!!!!!!!!!!!!!!!!!!!!!!!!",
"!!!!!!!!!!!!!!!!!!!!!!!!!!!!!WWWQYQYQYYQYQYQWWWWWWWYQYQYYQYQYQYQYQYQQYQYQYWYWYWYQYQYQYWYWYWYWYWWWW!!!!!!!!!!!!!!!!!!!!!!!!!!!!!!",
"!!!!!!!!!!!!!!!!!!!!!!!!!!!!!YWUYQYWYQWYQYQYWUWUWUUWYWYWQYQYQYQYQYQYYQYWYQYWYWUWYQYWYQYWYWUWWUWUWWW!!!!!!!!!!!!!!!!!!!!!!!!!!!!!",
"!!!!!!!!!!!!!!!!!!!!!!!!!!!!!WUWWUWWWUTTTTWWWWUWUWUWUWUWUWUWUWUWYWWWUWUWWUWWWUWWUWWUWWWUWWUWUWWWUWUWW!!!!!!!!!!!!!!!!!!!!!!!!!!!",
"!!!!!!!!!!!!!!!!!!!!!!!!!!!!!WWUWUUUUWTTTTUWUWWUWUWWWUWWWUWWWUWWWYUWWUWUWWUUUWUWWUWUUUUWUWUWUUUUWUWUUW!!!!!!!!!!!!!!!!!!!!!!!!!!",
"!!!!!!!!!!!!!!!!!!!!!!!!!!!!!UUUWUUWUWU!!!!!!!!!!!!!!!!!!!!!!!!!!!!!!!!!!!!!!!!!UWUWWUUWUUUUWUUWUUUWWUW!!!!!!!!!!!!!!!!!!!!!!!!!",
"!!!!!!!!!!!!!!!!!!!!!!!!!!!!!WUWUWUUWUU!!!!!!!!!!!!!!!!!!!!!!!!!!!!!!!!!!!!!!!!!!!!!UUWUWUWWUWWUUWWUUWUW!!!!!!!!!!!!!!!!!!!!!!!!",
"!!!!!!!!!!!!!!!!!!!!!!!!!!!!!UUUWUUWUUT!!!!!!!!!!!!!!!!!!!!!!!!!!!!!!!!!!!!!!!!!!!!!!!WUUUUUUUUUUUUUUWUUW!!!!!!!!!!!!!!!!!!!!!!!",
"!!!!!!!!!!!!!!!!!!!!!!!!!!!!!WWUUUUUUWU!!!!!!!!!!!!!!!!!!!!!!!!!!!!!!!!!!!!!!!!!!!!!!!!!UWWUUWUUUWWUUUUUUU!!!!!!!!!!!!!!!!!!!!!!",
"!!!!!!!!!!!!!!!!!!!!!!!!!!!!!UUUUUUUUUU!!!!!!!!!!!!!!!!!!!!!!!!!!!!!!!!!!!!!!!!!!!!!!!!!!!UUUUUUUUUUUUUUUUU!!!!!!!!!!!!!!!!!!!!!",
"!!!!!!!!!!!!!!!!!!!!!!!!!!!!!UJUUHUUUUU!!!!!!!!!!!!!!!!!!!!!!!!!!!!!!!!!!!!!!!!!!!!!!!!!!!!!UUUUUUHUUUHUUUUU!!!!!!!!!!!!!!!!!!!!",
"!!!!!!!!!!!!!!!!!!!!!!!!!!!!!UUUYKYYKTU!!!!!!!!!!!!!!!!!!!!!!!!!!!!!!!!!!!!!!!!!!!!!!!!!!!!!!UUUUUUUUUHUYKYYK!!!!!!!!!!!!!!!!!!!",
"!!!!!!!!!!!!!!!!!!!!!!!!!!!!!UUHKYKKIKU!!!!!!!!!!!!!!!!!!!!!!!!!!!!!!!!!!!!!!!!!!!!!!!!!!!!!!!UHUHJUHUHUKYKKUU!!!!!!!!!!!!!!!!!!",
"!!!!!!!!!!!!!!!!!!!!!!!!!!!!!!HUKKKKKKK!!!!!!!!!!!!!!!!!!!!!!!!!!!!!!!!!!!!!!!!!!!!!!!!!!!!!!!!UHUJUJUUHKKKKUUU!!!!!!!!!!!!!!!!!",
"!!!!!!!!!!UJUJUJJUUJJUKKUJUJUUHHKKKKKKKKJUJUJUKKUJUJUJJUJJUUUJUJUJJUUJUKUJU!!!!!!!!!!!!!!!!!!!!!HUJJJJJUKKKKHHH!!!!!!!!!!!!!!!!!",
"!!!!!!!!!!UJKKKKJJUJKKKKKKKKJJJUKKKKKKKKJJUJKKKKKKKHJJJUJJJJJJJJJJKKKKKKJJKKKKKKU!!!!!!!!!!!!!!!!UJUUJJJKKKKUJJJ!!!!!!!!!!!!!!!!",
"!!!!!!!!!!JJHKHHJJJJKHHKKHHHJJJJHKKHHKHHJJJJHKKHHKHHJJJJJJJJJJJJJJHHHHHKJJHHHHHKHHUH!!!!!!!!!!!!!!JHJJJJHHKHJJJUH!!!!!!!!!!!!!!!",
"!!!!!!!!!!HHHHHHHHJJHHHHHHHHHHJJHHHHHHHHHHJJHHHHHHHHSJJJJJJSJJJJJJSHHHHHJJSHHHHHHHHHHH!!!!!!!!!!!!!HDSJJHHHHJJHHH!!!!!!!!!!!!!!!",
"!!!!!!!!!!HHHHHHHDSJHHHHHHHHHHDSHHHHHHHHHDSJHHHHHHHHHJJSSJJJJJSJJJHHHHHHJJHHHHHHHHHHHHHH!!!!!!!!!!!!DJJJHHHHDSHHHH!!!!!!!!!!!!!!",
"!!!!!!!!!!JSJSJSJSJSJSUJJJJJGHJHJUJJHJSUJSHJSJSJSJSJSJJFFFFFSJSJJHJHJUJHFFJSJSJSFFFFFFJSJ!!!!!!!!!!!!JJSSJAJFFFFFF!!!!!!!!!!!!!!",
"!!!!!!!!!!SJSJAJAJSJAJALAAAAGGAAAAAAGGAAAJGGJAJSJJJSJAAJFFDDJJJSAAAGAAAAFJAJSJSJFFFJFJAJSJJ!!!!!!!!!!!SJJJJAFFFFFFU!!!!!!!!!!!!!",
"!!!!!!!!!!JSSSSJJSSSJAAAALAAGSSSSGAAGSSGAGGGGGAASSSJASJSFFFFSSSJAGGSAAJAFFSSSJSSFFSSFFSSSSJS!!!!!!!!!!SSSSSSFJAJJSJ!!!!!!!!!!!!!",
"!!!!!!!!!!SSSSSASSSSZAAAGAAASSSSSGGGSSSSAAGSGAAASSSSSSASFFFFSSSSGGSSGGSSAFSSSSSSFFAJAFSSSSSSS!!!!!!!!!!SSSSSFASSSSSS!!!!!!!!!!!!",
"!!!!!!!!!!SSSSSSSSSSHCHCGGSSSSSSSSSSSSSSSSSSSSSSSSSSSSSSFAJSSSSSSSSSSSSSJSSSCHCSFFFASSSSSSSSSS!!!!!!!!!SSSSSSSHHSSSS!!!!!!!!!!!!",
"!!!!!!!!!!ASAAAASHSS!!!!!!!!!AAAAAAAAAA!!!!!!!!!!!!!!!!!!!!!!!!!!!!!!!!!!!!!!!JSAAAAAAAASSASSH!!!!!!!!!!SSSSSSSCSSSS!!!!!!!!!!!!",
"!!!!!!!!!!SBASAACCCC!!!!!!!!!AAAAAVAVAV!!!!!!!!!!!!!!!!!!!!!!!!!!!!!!!!!!!!!!!!!!SAASSBSBSBSCCC!!!!!!!!!SBSBBSCCBBSBS!!!!!!!!!!!",
"!!!!!!!!!!SBBBABCCCC!!!!!!!!!AVVVAVAVAV!!!!!!!!!!!!!!!!!!!!!!!!!!!!!!!!!!!!!!!!!!!!BBBSBSBSBCCCC!!!!!!!!!SBSBBCCBSBSB!!!!!!!!!!!",
"!!!!!!!!!!BBSCCCBSBC!!!!!!!!!BSBVAVAVVA!!!!!!!!!!!!!!!!!!!!!!!!!!!!!!!!!!!!!!!!!!!!!SSBBBSBCCCCC!!!!!!!!!SBSSBBCCCBSS!!!!!!!!!!!",
"!!!!!!!!!!SBBBVVBBBV!!!!!!!!!BBBVVVAVVV!!!!!!!!!!!!!!!!!!!!!!!!!!!!!!!!!!!!!!!!!!!!!!BSBBBBBVCVVB!!!!!!!!BBBBBCVVVBBBB!!!!!!!!!!",
"!!!!!!!!!!BBBBBBBBBB!!!!!!!!!BBBVmVmVVV!!!!!!!!!!!!!!!!!!!!!!!!!!!!!!!!!!!!!!!!!!!!!!!BBBBBBBBBBB!!!!!!!!!BBBBBBBBBBBB!!!!!!!!!!",
"!!!!!!!!!!BBBBBBBBBB!!!!!!!!!BBBmVmVmVV!!!!!!!!!!!!!!!!!!!!!!!!!!!!!!!!!!!!!!!!!!!!!!!!BBBBBBBBBBB!!!!!!!!BBBBBBBBBBBB!!!!!!!!!!",
"!!!!!!!!!!MBBBBMBBMB!!!!!!!!!BBBVmVmVmV!!!!!!!!!!!!!!!!!!!!!!!!!!!!!!!!!!!!!!!!!!!!!!!!!BBMBMBBBBB!!!!!!!!BMBMBMBBBMBM!!!!!!!!!!",
"!!!!!!!!!!MMMMMMMBMM!!!!!!!!!BMMmVmVmVm!!!!!!!!!!!!!!!!!!!!!!!!!!!!!!!!!!!!!!!!!!!!!!!!!MMMMMMMBMMB!!!!!!!MMMMBBMMMMBBB!!!!!!!!!",
"!!!!!!!!!!vBvMMMMvMM!!!!!!!!!BvMmmmmmmm!!!!!!!!!!!!!!!!!!!!!!!!!!!!!!!!!!!!!!!!!!!!!!!!!!MBvMvBvMMv!!!!!!!!MMvBvvMMMBvM!!!!!!!!!",
"!!!!!!!!!!BvMvMMvMMM!!!!!!!!!vBvmmmmmmm!!!!!!!!!!!!!!!!!!!!!!!!!!!!!!!!!!!!!!!!!!!!!!!!!!BvBvMvMMvB!!!!!!!!MvMvBMvMMvBv!!!!!!!!!",
"!!!!!!!!!!MvMvMMvMMM!!!!!!!!!MMMmmmmcmm!!!!!!!!!!!!!!!!!!!!!!!!!!!!!!!!!!!!!!!!!!!!!!!!!!MvMMMvMMvM!!!!!!!!vMvMvvMMvMMv!!!!!!!!!",
"!!!!!!!!!!vMkMkMMvkM!!!!!!!!!MkMmcmcmcm!!!!!!!!!!!!!!!!!!!!!!!!!!!!!!!!!!!!!!!!!!!!!!!!!!!MvkMMkkMv!!!!!!!!MkMvMMkkMkMM!!!!!!!!!",
"!!!!!!!!!!vkMvvvkvvv!!!!!!!!!vvvcmcmccc!!!!!!!!!!!!!!!!!!!!!!!!!!!!!!!!!!!!!!!!!!!!!!!!!!!kvMkccMkvv!!!!!!!vMkvvvvMkvvM!!!!!!!!!",
"!!!!!!!!!!vMkvvvvvvv!!!!!!!!!vvvccccmcm!!!!!!!!!!!!!!!!!!!!!!!!!!!!!!!!!!!!!!!!!!!!!!!!!!!vvkMccvvkM!!!!!!!vvvkMvvvvkMk!!!!!!!!!",
"!!!!!!!!!!Mcxvxvcccc!!!!!!!!!Mvkccccccc!!!!!!!!!!!!!!!!!!!!!!!!!!!!!!!!!!!!!!!!!!!!!!!!!!!ccccccvkkM!!!!!!!vMkkkvvccccc!!!!!!!!!",
"!!!!!!!!!!kkxxxxcccc!!!!!!!!!ckMcjccccc!!!!!!!!!!!!!!!!!!!!!!!!!!!!!!!!!!!!!!!!!!!!!!!!!!!cccccckMkk!!!!!!!kkkMkckccjcc!!!!!!!!!",
"!!!!!!!!!!xxxxvxjckc!!!!!!!!!kkkjcjcjcc!!!!!!!!!!!!!!!!!!!!!!!!!!!!!!!!!!!!!!!!!!!!!!!!!!!kcjccccccc!!!!!!!ckMkkccccccj!!!!!!!!!",
"!!!!!!!!!!kkkkkkkjkk!!!!!!!!!kkkcjcjcjc!!!!!!!!!!!!!!!!!!!!!!!!!!!!!!!!!!!!!!!!!!!!!!!!!!!kkkkjkjkkk!!!!!!!kkkkkkkjkjkc!!!!!!!!!",
"!!!!!!!!!!kkkkkkkkkk!!!!!!!!!kkkjjjcjjj!!!!!!!!!!!!!!!!!!!!!!!!!!!!!!!!!!!!!!!!!!!!!!!!!!!kkkkkkjkk!!!!!!!!kkkjjjjjjkkk!!!!!!!!!",
"!!!!!!!!!!jjkkkfjjjj!!!!!!!!!kjjjjjjjjj!!!!!!!!!!!!!!!!!!!!!!!!!!!!!!!!!!!!!!!!!!!!!!!!!!kkkfkkkjjj!!!!!!!!jjjjjjjjjjjj!!!!!!!!!",
"!!!!!!!!!!jjkffkajjj!!!!!!!!!kkfjjjjjjj!!!!!!!!!!!!!!!!!!!!!!!!!!!!!!!!!!!!!!!!!!!!!!!!!!jkfkfkfjjj!!!!!!!!jjjjjjjjjjjj!!!!!!!!!",
"!!!!!!!!!!ajfkffjjaj!!!!!!!!!fffaajdjaj!!!!!!!!!!!!!!!!!!!!!!!!!!!!!!!!!!!!!!!!!!!!!!!!!!jfkfffkjaa!!!!!!!!jjaajdjajajj!!!!!!!!!",
"!!!!!!!!!!jdjfffajff!!!!!!!!!jjdjaffffj!!!!!!!!!!!!!!!!!!!!!!!!!!!!!!!!!!!!!!!!!!!!!!!!!jjajffffjaj!!!!!!!!jffffjfffjdj!!!!!!!!!",
"!!!!!!!!!!ajjdffaaff!!!!!!!!!jajjafdffj!!!!!!!!!!!!!!!!!!!!!!!!!!!!!!!!!!!!!!!!!!!!!!!!!aaaaffffaj!!!!!!!!jaffffdjffajd!!!!!!!!!",
"!!!!!!!!!!aadffpaaaf!!!!!!!!!aaadjdjfff!!!!!!!!!!!!!!!!!!!!!!!!!!!!!!!!!!!!!!!!!!!!!!!!jpfaafpaaaa!!!!!!!!pffffppfdfaa!!!!!!!!!!",
"!!!!!!!!!!addpppdddp!!!!!!!!!addddddppp!!!!!!!!!!!!!!!!!!!!!!!!!!!!!!!!!!!!!!!!!!!!!!!pppdddppddd!!!!!!!!!pppfppppppda!!!!!!!!!!",
"!!!!!!!!!!ssajssauau!!!!!!!!!sssdddddda!!!!!!!!!!!!!!!!!!!!!!!!!!!!!!!!!!!!!!!!!!!!!!aadddddauaua!!!!!!!!!sjausssuauss!!!!!!!!!!",
"!!!!!!!!!!ssusssuaua!!!!!!!!!sjsdddsdss!!!!!!!!!!!!!!!!!!!!!!!!!!!!!!!!!!!!!!!!!!!!!dddddddddaua!!!!!!!!!sssuassjauass!!!!!!!!!!",
"!!!!!!!!!!ssusssuuau!!!!!!!!!sttddasdrd!!!!!!!!!!!!!!!!!!!!!!!!!!!!!!!!!!!!!!!!!!!!dddddaarauuua!!!!!!!!!sssusssuuuas!!!!!!!!!!!",
"!!!!!!!!!!uuuuusuuuu!!!!!!!!!auudrrdrad!!!!!!!!!!!!!!!!!!!!!!!!!!!!!!!!!!!!!!!!!!drdrsrsrrdruuu!!!!!!!!!!uusuuuuuuuus!!!!!!!!!!!",
"!!!!!!!!!!autttsuuuu!!!!!!!!!uuuruuudrd!!!!!!!!!!!!!!!!!!!!!!!!!!!!!!!!!!!!!!!tttdrtrdrarruuue!!!!!!!!!!ttttttttuuttt!!!!!!!!!!!",
"!!!!!!!!!!euttttuete!!!!!!!!!ueurueuttrtttttttttttttttttttttrdttttttttttttttttttttttttrruueueu!!!!!!!!!!tettttttuett!!!!!!!!!!!!",
"!!!!!!!!!!uetttttett!!!!!!!!!uueueuettttttttrrrrttttttttttttrrrrttttttttttttttttttttttrruuuuu!!!!!!!!!!uuuuettueeete!!!!!!!!!!!!",
"!!!!!!!!!!eeeeeeeuee!!!!!!!!!eeeeueerrrrrrrrrrrrrrrrrrrrrrrrrrrrrrrrrrrrrrrrrrrrrrrrrrrrqrqr!!!!!!!!!!!eeeeueueeeueu!!!!!!!!!!!!",
"!!!!!!!!!!eeeeteeeee!!!!!!!!!eeeeeqrqrqrwwwwwrwrrrwwwrwrwwwwrwrwwrwwwwwwrrwwwrwrrqrrrrrqeee!!!!!!!!!!!eeeeeeeeeeeeu!!!!!!!!!!!!!",
"!!!!!!!!!!eeee8eeeee!!!!!!!!!eeeeeqqqrqqwwwwwwwwwwwwwwwwwwwwwwwwwwwwwwwwwwwwwwwwqqqqqqrqee!!!!!!!!!!!eeeee8e8eeeeee!!!!!!!!!!!!!",
"!!!!!!!!!!e88e8ee8e8!!!!!!!!!e8e8qqqqqqqww8wwwwww8ww8wwwww8wwwwwwwwwww8ww8ww8wwwqqqqqqqr!!!!!!!!!!!!!e8ee8e88e8ee8!!!!!!!!!!!!!!",
"!!!!!!!!!!8ee8e88e8e!!!!!!!!!ee6qqqq9qqq8www9999www8ww8w8www999999999wwwwww8ww8w9qqq999!!!!!!!!!!!!!e8e88e8ee8ee8e!!!!!!!!!!!!!!",
"!!!!!!!!!!e888888888!!!!!!!!!8e8qqqq999988w88w888w88899988888w88999988w88w888899qqqq!!!!!!!!!!!!!!!88e88888888888!!!!!!!!!!!!!!!",
"!!!!!!!!!!8888888888!!!!!!!!!8686q66999988888888888888888888888898888888888888886!!!!!!!!!!!!!!!!!88868888888888!!!!!!!!!!!!!!!!",
"!!!!!!!!!!8488888888!!!!!!!!!888666q6656888888888888888888888884488888888888!!!!!!!!!!!!!!!!!!!!!888884888888888!!!!!!!!!!!!!!!!",
"!!!!!!!!!!8888488888!!!!!!!!!886q666q6q!!!!!!!!!!!!!!!!!848488888888!!!!!!!!!!!!!!!!!!!!!!!!!!!!688888888848884!!!!!!!!!!!!!!!!!",
"!!!!!!!!!!8666666666!!!!!!!!!6666666666!!!!!!!!!!!!!!!!!8484884848484!!!!!!!!!!!!!!!!!!!!!!!!!!666666666688181!!!!!!!!!!!!!!!!!!",
"!!!!!!!!!!1818166616!!!!!!!!!1666661166!!!!!!!!!!!!!!!!!!8844444448448!!!!!!!!!!!!!!!!!!!!!!!!6618186616616868!!!!!!!!!!!!!!!!!!",
"!!!!!!!!!!4441811661!!!!!!!!!6611661666!!!!!!!!!!!!!!!!!!!444444444444!!!!!!!!!!!!!!!!!!!!!!!6118181611618811!!!!!!!!!!!!!!!!!!!",
"!!!!!!!!!!4448186166!!!!!!!!!6166616161!!!!!!!!!!!!!!!!!!!4444444444444!!!!!!!!!!!!!!!!!!!!66166181816668118!!!!!!!!!!!!!!!!!!!!",
"!!!!!!!!!!1616162252!!!!!!!!!1161161166!!!!!!!!!!!!!!!!!!!!4444<44444444!!!!!!!!!!!!!!!!!!22252616166111116!!!!!!!!!!!!!!!!!!!!!",
"!!!!!!!!!!1111116122!!!!!!!!!1161611111!!!!!!!!!!!!!!!!!!!!!4<41<<<44<4<!!!!!!!!!!!!!!!!612222211111111611!!!!!!!!!!!!!!!!!!!!!!",
"!!!!!!!!!!1111111111!!!!!!!!!1111111111!!!!!!!!!!!!!!!!!!!!!<<<<<411<<<<1!!!!!!!!!!!!!1111112211111111111!!!!!!!!!!!!!!!!!!!!!!!",
"!!!!!!!!!!1111111111!!!!!!!!!1111111111!!!!!!!!!!!!!!!!!!!!!!4<4<<1114<<11!!!!!!!!!111111111;21111111111!!!!!!!!!!!!!!!!!!!!!!!!",
"!!!!!!!!!!2;22;2;22;!!!!!!!!!221;221211!!!!!!!!!!!!!!!!!!!!!!<<<<<<<22;222!!!!!!!!!:22;22222122;1122;22!!!!!!!!!!!!!!!!!!!!!!!!!",
"!!!!!!!!!!1;;22;21;2!!!!!!!!!2;;22;;;1:!!!!!!!!!!!!!!!!!!!!!!!<<<<<<;22;;;2!!!!!!!!!1;2;;;;;;1;21:;22;!!!!!!!!!!!!!!!!!!!!!!!!!!",
"!!!!!!!!!!112;;21;;1!!!!!!!!!;:1;2;1;1:!!!!!!!!!!!!!!!!!!!!!!!!<:<:<;12;;2;!!!!!!!!!!1;1;22;1:1:;;11!!!!!!!!!!!!!!!!!!!!!!!!!!!!",
"!!!!!!!!!!::;2;;;1::!!!!!!!!!;::;;1;1;:!!!!!!!!!!!!!!!!!!!!!!!!<:<::1;;;;;2;!!!!!!!!!;1:2;;2:::::1;!!!!!!!!!!!!!!!!!!!!!!!!!!!!!",
"!!!!!!!!!!:-;:::;:::!!!!!!!!!:::;1;:-::!!!!!!!!!!!!!!!!!!!!!!!!!::::::;;;1;::!!!!!!!!!::;;;:::--;;;!!!!!!!!!!!!!!!!!!!!!!!!!!!!!",
"!!!!!!!!!!;;;;;;;;;;!!!!!!!!!;;;;;;;;;-!!!!!!!!!!!!!!!!!!!!!!!!!!::=;=;;;;;;;!!!!!!!!!!;;;;;;;;;;;;;!!!!!!!!!!!!!!!!!!!!!!!!!!!!",
"!!!!!!!!!!;;;;;;;;;;!!!!!!!!!;;;;;;;;;:!!!!!!!!!!!!!!!!!!!!!!!!!!:::;;;;;;;;;;!!!!!!!!!;;;;;;;;;;;;;!!!!!!!!!!!!!!!!!!!!!!!!!!!!",
"!!!!!!!!!!;;;;;;;;;;!!!!!!!!!;;;;;;;;;;!!!!!!!!!!!!!!!!!!!!!!!!!!!:=;;;;;;;;;;;!!!!!!!!!;;;;;;;;;;;;;!!!!!!!!!!!!!!!!!!!!!!!!!!!",
"!!!!!!!!!!:;&;&;&;&;!!!!!!!!!;&;:%:%:%%!!!!!!!!!!!!!!!!!!!!!!!!!!!:%:%:%%:#::%:!!!!!!!!!!%:%:%:%;;&;&*!!!!!!!!!!!!!!!!!!!!!!!!!!",
"!!!!!!!!!!:%;&;&;&;&!!!!!!!!!;;&%:%:%::!!!!!!!!!!!!!!!!!!!!!!!!!!!!:%:%::%::%:%:!!!!!!!!!:%:%:%:;&;;-*!!!!!!!!!!!!!!!!!!!!!!!!!!",
"!!!!!!!!!!==&&;:&&&&!!!!!!!!!&&&====:==!!!!!!!!!!!!!!!!!!!!!!!!!!!!!====#===%:==:!!!!!!!!!:#:#==&&;&:%;!!!!!!!!!!!!!!!!!!!!!!!!!",
"!!!!!!!!!!=#&&%%;&;&!!!!!!!!!;&&====#==!!!!!!!!!!!!!!!!!!!!!!!!!!!!!=========#==:!!!!!!!!!!=====&&&&%%;&!!!!!!!!!!!!!!!!!!!!!!!!",
"!!!!!!!!!!::==#=&&&&!!!!!!!!!&&&:$$&:%%!!!!!!!!!!!!!!!!!!!!!!!!!!!!!!:#$##:##:$&#%!!!!!!!!!%:$$&#:#:%%%:!!!!!!!!!!!!!!!!!!!!!!!!",
"!!!!!!!!!!####==&&&@!!!!!!!!!&&&##&&#%%!!!!!!!!!!!!!!!!!!!!!!!!!!!!!!!#::#%##:$&#%%!!!!!!!!!%%&&#%##%%%#%!!!!!!!!!!!!!!!!!!!!!!!",
"!!!!!!!!!!=#=#=#@&&&!!!!!!!!!&&&#:#:#%:!!!!!!!!!!!!!!!!!!!!!!!!!!!!!!!#=#:%%=##=#:%!!!!!!!!!!%%%%%:#%%%%:!!!!!!!!!!!!!!!!!!!!!!!",
"!!!!!!!!!!#=###=&@@&!!!!!!!!!&@@#######!!!!!!!!!!!!!!!!!!!!!!!!!!!!!!!!######=######!!!!!!!!!#############!!!!!!!!!!!!!!!!!!!!!!",
"!!!!!!!!!!%%########!!!!!!!!!@&@#####=#!!!!!!!!!!!!!!!!!!!!!!!!!!!!!!!!!####=########!!!!!!!!!%%#=#######=#!!!!!!!!!!!!!!!!!!!!!",
"!!!!!!!!!!%o########!!!!!!!!!&#@#######!!!!!!!!!!!!!!!!!!!!!!!!!!!!!!!!!#############!!!!!!!!!o%###########!!!!!!!!!!!!!!!!!!!!!",
"!!!!!!!!!!%o########!!!!!!!!!##########!!!!!!!!!!!!!!!!!!!!!!!!!!!!!!!!!!#############!!!!!!!!!%############!!!!!!!!!!!!!!!!!!!!",
"!!!!!!!!!!o%+#++##@@!!!!!!!!!@@@#+#+##+!!!!!!!!!!!!!!!!!!!!!!!!!!!!!!!!!!+#####+###+###!!!!!!!!!#####+##+###+!!!!!!!!!!!!!!!!!!!",
"!!!!!!!!!!++++++@@@@!!!!!!!!!@@@++++o%%!!!!!!!!!!!!!!!!!!!!!!!!!!!!!!!!!!!+++++#+++#+++!!!!!!!!!+++++++++++++!!!!!!!!!!!!!!!!!!!",
"!!!!!!!!!!++++++@@X@!!!!!!!!!@X@++++ooo!!!!!!!!!!!!!!!!!!!!!!!!!!!!!!!!!!!!++++#+++#++++!!!!!!!!!++++++#++++++!!!!!!!!!!!!!!!!!!",
"!!!!!!!!!!++++++@X@X!!!!!!!!!!@X+.ooo%o!!!!!!!!!!!!!!!!!!!!!!!!!!!!!!!!!!!!#+.#.+.+.+.++!!!!!!!!!!++..+.++.++.!!!!!!!!!!!!!!!!!!",
"!!!!!!!!!!+++.+.X@X@!!!!!!!!!@X@++%oooo!!!!!!!!!!!!!!!!!!!!!!!!!!!!!!!!!!!!!.+.#.+.+.+++o!!!!!!!!!++++.++++.+++!!!!!!!!!!!!!!!!!",
"!!!!!!!!!!.@@.X@@@.@.@.@.@@.@.@.ooooo%o!!!!!!!!!!!!!!!!!!!!!!!!!!!!!!!!!!!!!!+.+oooooooooo!!!!!!!!!ooooooooooooo!!!!!!!!!!!!!!!!",
"!!!!!!!!!!@..@XXXXX.@X@.@..@.@.@oooo.+o!!!!!!!!!!!!!!!!!!!!!!!!!!!!!!!!!!!!!!++.oooooooooo!!!!!!!!!!oooooooooooo!!!!!!!!!!!!!!!!",
"!!!!!!!!!!X@@.XX@X@.@.XX.@.X@X@.oooo++.!!!!!!!!!!!!!!!!!!!!!!!!!!!!!!!!!!!!!!!.+ooooooooooo!!!!!!!!!oooooooooooo+!!!!!!!!!!!!!!!",
"!!!!!!!!!!XXXXXX.XXXXXXXXXXX.XXXXXXX...!!!!!!!!!!!!!!!!!!!!!!!!!!!!!!!!!!!!!!!..XXXXoooooooo!!!!!!!!!oXXooooooXX..!!!!!!!!!!!!!!",
"!!!!!!!!!!XXXXXXXXXXXXXXXXXXXXXX..oX.+.!!!!!!!!!!!!!!!!!!!!!!!!!!!!!!!!!!!!!!!!+XXXXXXXXoXXX!!!!!!!!!XXXooXX..XX.+!!!!!!!!!!!!!!",
"!!!!!!!!!!XX...........................!!!!!!!!!!!!!!!!!!!!!!!!!!!!!!!!!!!!!!!!!.............!!!!!!!!!.............!!!!!!!!!!!!!",
"!!!!!!!!!!X.... .......................!!!!!!!!!!!!!!!!!!!!!!!!!!!!!!!!!!!!!!!!!..............!!!!!!!!!............!!!!!!!!!!!!!",
"!!!!!!!!!!.....X.......................!!!!!!!!!!!!!!!!!!!!!!!!!!!!!!!!!!!!!!!!!!.............!!!!!!!!!.............!!!!!!!!!!!!",
"!!!!!!!!!!XXX XX XXX XXX. XX X  .......!!!!!!!!!!!!!!!!!!!!!!!!!!!!!!!!!!!!!!!!!!!.............!!!!!!!!!.............!!!!!!!!!!!",
"!!!!!!!!!!!!!!!!!!!!!!!!!!!!!!!!!!!!!!!!!!!!!!!!!!!!!!!!!!!!!!!!!!!!!!!!!!!!!!!!!!!!!!!!!!!!!!!!!!!!!!!!!!!!!!!!!!!!!!!!!!!!!!!!",
"!!!!!!!!!!!!!!!!!!!!!!!!!!!!!!!!!!!!!!!!!!!!!!!!!!!!!!!!!!!!!!!!!!!!!!!!!!!!!!!!!!!!!!!!!!!!!!!!!!!!!!!!!!!!!!!!!!!!!!!!!!!!!!!!",
"!!!!!!!!!!!!!!!!!!!!!!!!!!!!!!!!!!!!!!!!!!!!!!!!!!!!!!!!!!!!!!!!!!!!!!!!!!!!!!!!!!!!!!!!!!!!!!!!!!!!!!!!!!!!!!!!!!!!!!!!!!!!!!!!",
"!!!!!!!!!!!!!!!!!!!!!!!!!!!!!!!!!!!!!!!!!!!!!!!!!!!!!!!!!!!!!!!!!!!!!!!!!!!!!!!!!!!!!!!!!!!!!!!!!!!!!!!!!!!!!!!!!!!!!!!!!!!!!!!!",
"!!!!!!!!!!!!!!!!!!!!!!!!!!!!!!!!!!!!!!!!!!!!!!!!!!!!!!!!!!!!!!!!!!!!!!!!!!!!!!!!!!!!!!!!!!!!!!!!!!!!!!!!!!!!!!!!!!!!!!!!!!!!!!!!",
"!!!!!!!!!!!!!!!!!!!!!!!!!!!!!!!!!!!!!!!!!!!!!!!!!!!!!!!!!!!!!!!!!!!!!!!!!!!!!!!!!!!!!!!!!!!!!!!!!!!!!!!!!!!!!!!!!!!!!!!!!!!!!!!!",
"!!!!!!!!!!!!!!!!!!!!!!!!!!!!!!!!!!!!!!!!!!!!!!!!!!!!!!!!!!!!!!!!!!!!!!!!!!!!!!!!!!!!!!!!!!!!!!!!!!!!!!!!!!!!!!!!!!!!!!!!!!!!!!!!"
};
