/* XPM */
static char *Free_Converter_com_bitcoin32_99034943[] = {
/* columns rows colors chars-per-pixel */
"32 32 29 1 ",
"  c #E5668F",
". c #E6688F",
"X c #E76A8F",
"o c #E76C8F",
"O c #E86E8F",
"+ c #E9718E",
"@ c #E9748E",
"# c #EA768E",
"$ c #EB798E",
"% c #EC7C8E",
"& c #ED7F8E",
"* c #EE838E",
"= c #EF868E",
"- c #F0898D",
"; c #F18C8D",
": c #F28F8D",
"> c #F3938D",
", c #F4968D",
"< c #F5998D",
"1 c #F69C8D",
"2 c #F79E8D",
"3 c #F7A18C",
"4 c #F8A48C",
"5 c #F9A68C",
"6 c #F9A88C",
"7 c #FAAA8C",
"8 c #FBAC8C",
"9 c #FBAD8C",
"0 c None",
/* pixels */
"00000000000000000000000000000000",
"00000000000000000000000000000000",
"00000009889988999999990000000000",
"00000009879988888888979900000000",
"00000007770000000007777777000000",
"00000007500000000000005775700000",
"00000005550000000000000055550000",
"00445445445445445554500004450000",
"00424234233342342424324000233000",
"00222002220000000000222200222000",
"00210001200000000000022100011100",
"00,1000110000000000000,11001,100",
"00,,000,>00000000000000,,00,,,00",
"00>>000>>00000000000000>>00>>>00",
"00::000::0000000000000:::00:::00",
"00:-000::0000000000000:-:00:-:00",
"00--000--000000000000---00----00",
"00==000================000===000",
"00**000***************000****000",
"00&&000&&&&&&&&&&0&00000&&&&0000",
"00&$000&&00000&%&000000&%%&00000",
"00$$000$#000000$$$000$$$$$000000",
"00##000##0000000###00####0000000",
"00@#000@#0000000@@@@00#@#0000000",
"00@O000@@00000000@O@000@@O000000",
"00OO000OO000000000OOO00OOOO00000",
"00oo000Oo000000000oooo00Xoo00000",
"00XXX00XX0000000000XXX000XXX0000",
"00 XX X X 000000000XX X00X XX000",
"00       00000000000    00   000",
"00000000000000000000000000000000",
"00000000000000000000000000000000"
};
