<?xml version="1.0" encoding="utf-8"?>
<!-- Generator: Adobe Illustrator 22.0.0, SVG Export Plug-In . SVG Version: 6.00 Build 0)  -->
<svg version="1.1" id="Ebene_1" xmlns="http://www.w3.org/2000/svg" xmlns:xlink="http://www.w3.org/1999/xlink" x="0px" y="0px"
	 viewBox="0 0 841.9 841.9" enable-background="new 0 0 841.9 841.9" xml:space="preserve">
<linearGradient id="SVGID_1_" gradientUnits="userSpaceOnUse" x1="406.9227" y1="209.0058" x2="406.9227" y2="671">
	<stop  offset="0" style="stop-color:#F4A88B"/>
	<stop  offset="1" style="stop-color:#D66087"/>
</linearGradient>
<path fill="url(#SVGID_1_)" d="M627.7,394c0-102.2-80-185-178.8-185H303.8h-38.9h0v78.7h-78.7V671H225h78.7V497.5l65.3,0L477.5,671
	h53.9L419.7,497.5h24.2v0c57.8,0,104.7-47,104.7-104.9c0-57.9-46.9-104.9-104.7-104.9v0H303.8v-39.8H449
	c73.1,6.1,130.7,68.8,130.7,146c0,65.4-41.2,120.8-98.3,140l86.5,137h51L544,550.7C594.3,517.9,627.7,460,627.7,394z M264.8,632.1
	H225V326.7h39.8V632.1z M443.9,326.7L443.9,326.7c36.4,0,66,29.5,66,65.9c0,36.4-29.5,66-66,66v0H303.8V326.7H443.9z"/>
</svg>
