<!DOCTYPE svg PUBLIC "-//W3C//DTD SVG 20010904//EN" "http://www.w3.org/TR/2001/REC-SVG-20010904/DTD/svg10.dtd">
<svg version="1.0" xmlns="http://www.w3.org/2000/svg" width="104px" height="64px" viewBox="0 0 1040 640" preserveAspectRatio="xMidYMid meet">
<g id="layer101" fill="#e9728f" stroke="none">
 <path d="M0 320 l0 -320 520 0 520 0 0 320 0 320 -520 0 -520 0 0 -320z"/>
 </g>
<g id="layer102" fill="#f2908e" stroke="none">
 <path d="M0 320 l0 -320 520 0 520 0 0 320 0 320 -520 0 -520 0 0 -320z m400 155 l0 -95 38 0 c42 0 39 -4 126 143 23 39 33 47 58 47 20 0 27 -4 22 -12 -4 -7 -33 -53 -65 -103 l-58 -90 -63 2 c-35 0 -68 2 -75 2 -7 1 -14 31 -19 81 -6 68 -9 80 -25 80 -16 0 -19 -10 -21 -77 -3 -70 -5 -78 -23 -78 -18 0 -20 8 -23 98 l-3 97 66 0 65 0 0 -95z m335 68 c-10 -16 -28 -42 -41 -60 -13 -17 -24 -35 -24 -38 0 -4 14 -21 32 -38 l31 -32 -24 -6 c-15 -3 -27 0 -32 8 -4 7 -23 21 -42 31 l-34 17 46 73 c41 63 50 72 76 72 l29 0 -17 -27z m-155 -167 c0 -2 -9 -6 -20 -9 -11 -3 -20 -1 -20 4 0 5 9 9 20 9 11 0 20 -2 20 -4z"/>
 </g>
<g id="layer103" fill="#f9a88e" stroke="none">
 <path d="M0 320 l0 -320 520 0 520 0 0 320 0 320 -520 0 -520 0 0 -320z m400 155 l0 -95 38 0 c36 0 39 3 96 95 53 85 62 95 88 95 l30 0 -23 -37 c-13 -21 -38 -60 -56 -88 -18 -27 -33 -53 -33 -57 0 -5 14 -8 31 -8 48 0 99 -56 99 -108 0 -40 -20 -69 -40 -57 -7 4 -7 12 1 26 13 26 4 54 -28 79 -21 17 -40 20 -114 20 l-88 0 -3 -62 c-2 -34 -8 -63 -14 -65 -16 -5 -24 55 -24 195 0 113 -1 122 -19 122 -18 0 -19 -11 -23 -152 -3 -162 -10 -192 -34 -161 -10 14 -13 59 -14 186 l0 167 65 0 65 0 0 -95z m344 83 c-4 -7 -22 -36 -40 -63 l-32 -51 33 -36 c61 -66 77 -198 24 -198 -16 0 -19 7 -19 43 0 54 -36 126 -76 153 l-32 20 46 72 c39 62 50 72 74 72 21 0 27 -4 22 -12z"/>
 </g>
<g id="layer104" fill="#fcc8b5" stroke="none">
 <path d="M0 320 l0 -320 520 0 520 0 0 320 0 320 -520 0 -520 0 0 -320z m400 155 l0 -95 38 0 c36 0 39 3 96 95 53 85 62 95 88 95 l30 0 -23 -37 c-13 -21 -38 -60 -56 -88 -18 -27 -33 -53 -33 -57 0 -5 14 -8 31 -8 22 0 41 -10 65 -34 29 -29 34 -41 34 -79 0 -86 -51 -117 -192 -117 -77 0 -78 0 -78 -26 l0 -26 98 4 c73 3 106 9 132 24 43 25 80 87 80 134 0 48 -38 120 -76 146 l-32 20 46 72 c39 62 50 72 74 72 21 0 27 -4 22 -12 -4 -7 -22 -36 -40 -63 l-32 -51 33 -36 c82 -89 69 -225 -28 -302 -38 -31 -40 -31 -178 -34 l-139 -4 0 41 c0 41 0 41 -39 41 -38 0 -38 0 -45 46 -3 26 -6 120 -6 210 l0 164 65 0 65 0 0 -95z"/>
 <path d="M320 413 c0 -65 -3 -142 -6 -171 -7 -51 -6 -52 20 -52 l26 0 0 170 c0 163 -1 170 -20 170 -19 0 -20 -7 -20 -117z"/>
 <path d="M400 265 l0 -75 89 0 c106 0 141 18 141 75 0 57 -35 75 -141 75 l-89 0 0 -75z"/>
 </g>
<g id="layer105" fill="#ffffff" stroke="none">
 <path d="M0 320 l0 -320 520 0 520 0 0 320 0 320 -520 0 -520 0 0 -320z m400 155 l0 -95 38 0 c36 0 39 3 96 95 53 85 62 95 88 95 l30 0 -23 -37 c-13 -21 -38 -60 -56 -88 -18 -27 -33 -53 -33 -57 0 -5 13 -8 29 -8 38 0 86 -41 101 -84 14 -44 -5 -94 -48 -125 -26 -18 -44 -21 -127 -21 -86 0 -96 -2 -93 -17 3 -15 17 -18 93 -21 52 -2 101 2 117 9 45 18 86 72 93 123 9 57 -24 130 -71 162 l-32 20 46 72 c39 62 50 72 74 72 21 0 27 -4 22 -12 -4 -7 -23 -36 -40 -64 l-33 -51 25 -24 c43 -40 64 -92 64 -157 0 -51 -5 -67 -32 -108 -51 -74 -88 -88 -240 -92 l-128 -4 0 46 0 46 -45 0 -45 0 0 210 0 210 65 0 65 0 0 -95z"/>
 <path d="M322 363 c3 -151 5 -168 21 -171 16 -3 17 10 17 167 0 165 -1 171 -20 171 -20 0 -20 -5 -18 -167z"/>
 <path d="M400 270 c0 -67 1 -70 26 -76 14 -4 58 -4 97 -1 79 5 107 25 107 77 0 51 -38 70 -141 70 l-89 0 0 -70z"/>
 </g>

</svg>