<?xml version="1.0" encoding="utf-8"?>
<!-- Generator: Adobe Illustrator 22.0.0, SVG Export Plug-In . SVG Version: 6.00 Build 0)  -->
<svg version="1.1" id="Ebene_1" xmlns="http://www.w3.org/2000/svg" xmlns:xlink="http://www.w3.org/1999/xlink" x="0px" y="0px"
	 viewBox="0 0 841.9 841.9" enable-background="new 0 0 841.9 841.9" xml:space="preserve">
<linearGradient id="SVGID_1_" gradientUnits="userSpaceOnUse" x1="173.3" y1="439.9" x2="686.1" y2="439.9">
	<stop  offset="0" style="stop-color:#F4A88B"/>
	<stop  offset="1" style="stop-color:#D66087"/>
</linearGradient>
<path fill="url(#SVGID_1_)" d="M611,258.6c-48.4-48.4-112.8-75.1-181.3-75.1s-132.9,26.7-181.3,75.1
	C200,307,173.3,371.4,173.3,439.9s26.6,132.9,75,181.3c48.4,48.4,112.8,75.1,181.3,75.1s133-26.7,181.4-75.1
	c48.4-48.4,75.1-112.8,75.1-181.3S659.4,307,611,258.6z M582.6,593c-40.9,40.9-95.2,63.4-153,63.4c-57.8,0-112.1-22.5-153-63.4
	c-40.9-40.9-63.4-95.2-63.4-153s22.5-112.1,63.4-153c40.9-40.9,95.2-63.4,153-63.4c0,26,0,71.3,0,98.2
	c0,117.5-0.4,118.1,118.2,118.1c26.9,0,72.2,0,98.2,0c0,0,0,0.1,0,0.1C646,497.8,623.5,552.1,582.6,593z"/>
</svg>
