<?xml version="1.0" encoding="utf-8"?>
<!-- Generator: Adobe Illustrator 22.0.0, SVG Export Plug-In . SVG Version: 6.00 Build 0)  -->
<svg version="1.1" id="Ebene_1" xmlns="http://www.w3.org/2000/svg" xmlns:xlink="http://www.w3.org/1999/xlink" x="0px" y="0px"
	 viewBox="0 0 841.9 841.9" enable-background="new 0 0 841.9 841.9" xml:space="preserve">
<g>
	<linearGradient id="SVGID_1_" gradientUnits="userSpaceOnUse" x1="41.3" y1="420.9" x2="554.1" y2="420.9">
		<stop  offset="0" style="stop-color:#F4A88B"/>
		<stop  offset="1" style="stop-color:#D66087"/>
	</linearGradient>
	<path fill="url(#SVGID_1_)" d="M479,239.6c-48.4-48.4-112.8-75.1-181.3-75.1s-132.9,26.7-181.3,75.1C68,288,41.3,352.4,41.3,420.9
		s26.6,132.9,75,181.3c48.4,48.4,112.8,75.1,181.3,75.1s133-26.7,181.4-75.1c48.4-48.4,75.1-112.8,75.1-181.3S527.4,288,479,239.6z
		 M450.6,574c-40.9,40.9-95.2,63.4-153,63.4c-57.8,0-112.1-22.5-153-63.4c-40.9-40.9-63.4-95.2-63.4-153s22.5-112.1,63.4-153
		c40.9-40.9,95.2-63.4,153-63.4c57.8,0,112.2,22.5,153,63.4c40.9,40.9,63.4,95.2,63.4,153S491.5,533.1,450.6,574z"/>
	<linearGradient id="SVGID_2_" gradientUnits="userSpaceOnUse" x1="268.7" y1="353" x2="417.9" y2="353">
		<stop  offset="0" style="stop-color:#F4A88B"/>
		<stop  offset="1" style="stop-color:#D66087"/>
	</linearGradient>
	<path fill="url(#SVGID_2_)" d="M393.1,403h-74.8V278.2c0-14.9-9.9-24.8-24.8-24.8c-14.9,0-24.8,9.9-24.8,24.8v149.6
		c0,12.4,10,24.8,24.8,24.8h99.6c14.9,0,24.8-9.9,24.8-24.8C417.9,412.9,408,403,393.1,403z"/>
</g>
</svg>
