<?xml version="1.0" encoding="utf-8"?>
<!-- Generator: Adobe Illustrator 22.0.0, SVG Export Plug-In . SVG Version: 6.00 Build 0)  -->
<svg version="1.1" id="Ebene_1" xmlns="http://www.w3.org/2000/svg" xmlns:xlink="http://www.w3.org/1999/xlink" x="0px" y="0px"
	 viewBox="0 0 841.9 841.9" enable-background="new 0 0 841.9 841.9" xml:space="preserve">
<linearGradient id="SVGID_1_" gradientUnits="userSpaceOnUse" x1="41.3" y1="420.9" x2="554.1" y2="420.9">
	<stop  offset="0" style="stop-color:#F4A88B"/>
	<stop  offset="1" style="stop-color:#D66087"/>
</linearGradient>
<path fill="url(#SVGID_1_)" d="M479,239.6c-48.4-48.4-112.8-75.1-181.3-75.1s-132.9,26.7-181.3,75.1C68,288,41.3,352.4,41.3,420.9
	s26.6,132.9,75,181.3c48.4,48.4,112.8,75.1,181.3,75.1s133-26.7,181.4-75.1c48.4-48.4,75.1-112.8,75.1-181.3S527.4,288,479,239.6z
	 M144.6,574c-40.9-40.9-63.4-95.2-63.4-153s22.5-112.1,63.4-153c40.9-40.9,95.2-63.4,153-63.4v216.3v216.5
	C239.8,637.4,185.5,614.9,144.6,574z"/>
</svg>
