<?xml version="1.0" encoding="utf-8"?>
<!-- Generator: Adobe Illustrator 22.0.0, SVG Export Plug-In . SVG Version: 6.00 Build 0)  -->
<svg version="1.1"
	 id="Ebene_1" xmlns:cc="http://creativecommons.org/ns#" xmlns:dc="http://purl.org/dc/elements/1.1/" xmlns:rdf="http://www.w3.org/1999/02/22-rdf-syntax-ns#" xmlns:svg="http://www.w3.org/2000/svg"
	 xmlns="http://www.w3.org/2000/svg" xmlns:xlink="http://www.w3.org/1999/xlink" x="0px" y="0px" viewBox="0 0 841.9 841.9"
	 enable-background="new 0 0 841.9 841.9" xml:space="preserve">
<linearGradient id="SVGID_1_" gradientUnits="userSpaceOnUse" x1="136.3" y1="409.9" x2="649.1" y2="409.9">
	<stop  offset="0" style="stop-color:#F4A88B"/>
	<stop  offset="1" style="stop-color:#D66087"/>
</linearGradient>
<path fill="url(#SVGID_1_)" d="M574,228.6c-48.4-48.4-112.8-75.1-181.3-75.1s-132.9,26.7-181.3,75.1
	C163,277,136.3,341.4,136.3,409.9s26.6,132.9,75,181.3c48.4,48.4,112.8,75.1,181.3,75.1s133-26.7,181.4-75.1
	c48.4-48.4,75.1-112.8,75.1-181.3S622.4,277,574,228.6z M488.1,441.6h-99.6c-14.8,0-24.8-12.4-24.8-24.8V267.2
	c0-14.9,9.9-24.8,24.8-24.8c14.9,0,24.8,9.9,24.8,24.8V392h74.8c14.9,0,24.8,9.9,24.8,24.8S503,441.6,488.1,441.6z"/>
</svg>
