<?xml version="1.0" encoding="utf-8"?>
<!-- Generator: Adobe Illustrator 22.0.0, SVG Export Plug-In . SVG Version: 6.00 Build 0)  -->
<svg version="1.1"
	 id="svg2" xmlns:cc="http://creativecommons.org/ns#" xmlns:dc="http://purl.org/dc/elements/1.1/" xmlns:rdf="http://www.w3.org/1999/02/22-rdf-syntax-ns#" xmlns:svg="http://www.w3.org/2000/svg"
	 xmlns="http://www.w3.org/2000/svg" xmlns:xlink="http://www.w3.org/1999/xlink" x="0px" y="0px" viewBox="0 0 92 92"
	 enable-background="new 0 0 92 92" xml:space="preserve">
<g id="g4142" transform="matrix(0,1,1,0,-106.3,-36.15)">
	<g id="g4144" transform="matrix(-1,0,0,1,-16.98,0.8136)">
	</g>
</g>
<linearGradient id="SVGID_1_" gradientUnits="userSpaceOnUse" x1="0.9584" y1="46" x2="91.0417" y2="46">
	<stop  offset="0" style="stop-color:#F4A88B"/>
	<stop  offset="1" style="stop-color:#D66087"/>
</linearGradient>
<path fill="url(#SVGID_1_)" d="M77.2,42.2c-5.4,0-9.6,3.3-11.5,7.7h-8.2c0.5-1.2,0.7-2.5,0.7-3.9c0-3.2-1.5-6.3-3.8-8.6
	c-0.7-0.9-1.5-1.6-2.5-2.2v-8.4c0-1.9,1.5-3.5,3.5-3.5H65c2.3,4.5,6.9,7.7,12.3,7.7c7.3,0,13.8-6.2,13.8-13.8
	c0-7.7-6.5-13.8-13.8-13.8c-5.4,0-10,3.2-12.3,7.7h-9.6c-8.4,0-15.7,7.1-15.7,15.7v3.8c-1.1-0.2-2.3-0.4-3.5-0.4H27
	c-2.3-4.5-6.9-7.7-12.3-7.7C7.1,22.7,1,28.9,1,36.5C1,44,7.1,50.3,14.8,50.3c5.4,0,10-3.1,12.3-7.7h7.3c-0.4,1.1-0.6,2.2-0.6,3.4
	c0,3.2,1.5,6.3,3.8,8.6c0.6,0.8,1.3,1.4,2.1,1.9v8.6c0,1.9-1.5,3.5-3.5,3.5H27c-2.3-4.5-6.9-7.7-12.3-7.7C7.1,60.9,1,67.2,1,74.7
	c0,7.6,6.1,13.8,13.8,13.8c5.4,0,10-3.1,11.9-7.6h9.6c8.8,0,15.7-7.1,15.7-15.7h0V61c1.1,0.3,2.3,0.4,3.5,0.4h10.3
	c1.9,4.4,6.1,7.7,11.5,7.7c7.3,0,13.4-6,13.4-13.4C90.7,48.2,84.5,42.2,77.2,42.2z M77.2,65.2c-4.2,0-7.7-2.7-8.8-6.4L68,57.5H55.4
	c-1.2,0-2.4-0.2-3.5-0.6v-0.1c1-0.6,1.8-1.3,2.5-2.2c0.3-0.3,0.6-0.6,0.8-0.9c0,0,0.1,0,0.1,0H68l0.4-1.3c1.2-3.7,4.6-6.4,8.8-6.4
	c5,0,9.6,4.3,9.6,9.6C86.8,60.9,82.2,65.2,77.2,65.2z"/>
</svg>
