<?xml version="1.0" encoding="utf-8"?>
<!-- Generator: Adobe Illustrator 22.0.0, SVG Export Plug-In . SVG Version: 6.00 Build 0)  -->
<svg version="1.1"
	 id="svg2" xmlns:cc="http://creativecommons.org/ns#" xmlns:dc="http://purl.org/dc/elements/1.1/" xmlns:rdf="http://www.w3.org/1999/02/22-rdf-syntax-ns#" xmlns:svg="http://www.w3.org/2000/svg"
	 xmlns="http://www.w3.org/2000/svg" xmlns:xlink="http://www.w3.org/1999/xlink" x="0px" y="0px" viewBox="0 0 92 92"
	 enable-background="new 0 0 92 92" xml:space="preserve">
<linearGradient id="SVGID_1_" gradientUnits="userSpaceOnUse" x1="1.0979" y1="46" x2="91.1812" y2="46">
	<stop  offset="0" style="stop-color:#F4A88B"/>
	<stop  offset="1" style="stop-color:#D66087"/>
</linearGradient>
<path fill="url(#SVGID_1_)" d="M77.4,42.2c-5.4,0-9.6,3.3-11.5,7.7h-8.4c0.5-1.2,0.7-2.5,0.7-3.9c0-3.2-1.5-6.3-3.8-8.6
	c-0.7-0.8-1.5-1.5-2.4-2.1v-8.5c0-1.9,1.5-3.5,3.5-3.5h9.6c2.3,4.5,6.9,7.7,12.3,7.7c7.3,0,13.8-6.2,13.8-13.8
	c0-7.7-6.5-13.8-13.8-13.8c-5.4,0-10,3.2-12.3,7.7h-9.6c-8.4,0-15.7,7.1-15.7,15.7v4.2c-1.1-0.2-2.3-0.4-3.5-0.4h-10
	c-1.9-4.4-6.1-7.7-11.5-7.7C7.2,23,1.5,29.1,1.5,36.5c0,7.3,5.7,13.4,13.4,13.4c5.4,0,9.6-3.3,11.5-7.7h8c-0.5,1.2-0.7,2.5-0.7,3.8
	c0,3.2,1.5,6.3,3.8,8.6c0.6,0.8,1.4,1.5,2.2,2v8.5c0,1.9-1.5,3.5-3.5,3.5h-9.2c-2.3-4.5-6.9-7.7-12.3-7.7c-7.7,0-13.8,6.3-13.8,13.8
	c0,7.6,6.1,13.8,13.8,13.8c5.4,0,10-3.1,11.9-7.6h9.6c8.8,0,15.7-7.1,15.7-15.7h0V61c1.1,0.3,2.3,0.4,3.5,0.4h10.3
	C67.8,65.8,72,69,77.4,69c7.3,0,13.4-6,13.4-13.4C90.8,48.2,84.7,42.2,77.4,42.2z M36.4,38.4H24.1l-0.4,1.3
	c-1.2,3.7-4.6,6.4-8.8,6.4c-5.4,0-9.6-4.3-9.6-9.6c0-5.3,4.2-9.6,9.6-9.6c4.2,0,7.7,2.7,8.8,6.4l0.4,1.3h12.3c1.2,0,2.4,0.2,3.5,0.6
	v0.3c-0.9,0.5-1.6,1.2-2.2,2c-0.3,0.3-0.6,0.6-0.9,1C36.6,38.4,36.5,38.4,36.4,38.4z M77.4,65.2c-4.2,0-7.7-2.7-8.8-6.4l-0.4-1.3
	H55.5c-1.2,0-2.4-0.2-3.5-0.6v-0.2c0.9-0.6,1.7-1.2,2.4-2.1c0.3-0.3,0.6-0.6,0.8-0.9c0.1,0,0.2,0,0.3,0h12.7l0.4-1.3
	c1.1-3.7,4.6-6.4,8.8-6.4c5,0,9.6,4.3,9.6,9.6C87,60.9,82.4,65.2,77.4,65.2z"/>
</svg>
