<?xml version="1.0" encoding="utf-8"?>
<!-- Generator: Adobe Illustrator 22.0.0, SVG Export Plug-In . SVG Version: 6.00 Build 0)  -->
<svg version="1.1"
	 id="svg2" xmlns:cc="http://creativecommons.org/ns#" xmlns:dc="http://purl.org/dc/elements/1.1/" xmlns:rdf="http://www.w3.org/1999/02/22-rdf-syntax-ns#" xmlns:svg="http://www.w3.org/2000/svg"
	 xmlns="http://www.w3.org/2000/svg" xmlns:xlink="http://www.w3.org/1999/xlink" x="0px" y="0px" viewBox="0 0 92 92"
	 enable-background="new 0 0 92 92" xml:space="preserve">
<linearGradient id="SVGID_1_" gradientUnits="userSpaceOnUse" x1="0.9445" y1="46" x2="91.0278" y2="46">
	<stop  offset="0" style="stop-color:#F4A88B"/>
	<stop  offset="1" style="stop-color:#D66087"/>
</linearGradient>
<path fill="url(#SVGID_1_)" d="M77.2,41.8c-5.4,0-10,3.2-12.3,7.7h-7.3c0.4-1.1,0.6-2.3,0.6-3.5c0-3.2-1.5-6.3-3.8-8.6
	c-0.7-0.9-1.5-1.6-2.5-2.2v-8.4c0-1.9,1.5-3.5,3.5-3.5H65c2.3,4.5,6.9,7.7,12.3,7.7c7.3,0,13.8-6.2,13.8-13.8
	c0-7.7-6.5-13.8-13.8-13.8c-5.4,0-10,3.2-12.3,7.7h-9.6c-8.4,0-15.7,7.1-15.7,15.7v3.8c-1.1-0.2-2.3-0.4-3.5-0.4H27
	c-2.3-4.5-6.9-7.7-12.3-7.7c-7.7,0-13.8,6.2-13.8,13.8c0,7.5,6.1,13.8,13.8,13.8c5.4,0,10-3.1,12.3-7.7h7.3
	c-0.4,1.1-0.6,2.2-0.6,3.4c0,3.2,1.5,6.3,3.8,8.6c0.6,0.8,1.3,1.4,2.1,1.9v8.6c0,1.9-1.5,3.5-3.5,3.5H27c-2.3-4.5-6.9-7.7-12.3-7.7
	c-7.7,0-13.8,6.3-13.8,13.8c0,7.6,6.1,13.8,13.8,13.8c5.4,0,10-3.1,11.9-7.6h9.6c8.8,0,15.7-7.1,15.7-15.7v-3.8
	c1.1,0.3,2.3,0.4,3.5,0.4H65c2.3,4.5,6.9,7.7,12.3,7.7c7.3,0,13.8-6.1,13.8-13.8C91,48,84.5,41.8,77.2,41.8z"/>
</svg>
