<?xml version="1.0" encoding="utf-8"?>
<!-- Generator: Adobe Illustrator 22.0.0, SVG Export Plug-In . SVG Version: 6.00 Build 0)  -->
<svg version="1.1"
	 id="svg2" xmlns:cc="http://creativecommons.org/ns#" xmlns:dc="http://purl.org/dc/elements/1.1/" xmlns:rdf="http://www.w3.org/1999/02/22-rdf-syntax-ns#" xmlns:svg="http://www.w3.org/2000/svg"
	 xmlns="http://www.w3.org/2000/svg" xmlns:xlink="http://www.w3.org/1999/xlink" x="0px" y="0px" viewBox="0 0 92 92"
	 enable-background="new 0 0 92 92" xml:space="preserve">
<linearGradient id="SVGID_1_" gradientUnits="userSpaceOnUse" x1="1.3279" y1="46" x2="90.6445" y2="46">
	<stop  offset="0" style="stop-color:#F4A88B"/>
	<stop  offset="1" style="stop-color:#D66087"/>
</linearGradient>
<path fill="url(#SVGID_1_)" d="M77.2,42.2c-5.4,0-9.6,3.3-11.5,7.7h-8.1c0.4-1.2,0.7-2.5,0.7-3.9c0-3.2-1.3-6.4-3.6-8.6
	c-0.9-0.9-2-1.7-3.1-2.3v-8.2c0-2.1,1.9-3.8,3.8-3.8h10.3c1.9,4.4,6.1,7.7,11.5,7.7c7.3,0,13.4-6,13.4-13.4
	c0-7.4-6.1-13.4-13.4-13.4c-5.4,0-9.6,3.3-11.5,7.7H55.4c-8.4,0-15.3,6.9-15.3,15.3v4.3c-1.2-0.3-2.5-0.5-3.8-0.5h-10
	c-1.9-4.4-6.1-7.7-11.5-7.7C7.1,23,1.3,29.1,1.3,36.5c0,7.3,5.8,13.4,13.4,13.4c5.4,0,9.6-3.3,11.5-7.7h8.1
	c-0.4,1.2-0.6,2.5-0.6,3.8c0,3.2,1.3,6.4,3.6,8.7c0.8,0.8,1.7,1.5,2.7,2v8.4c0,2.1-1.9,3.8-3.8,3.8h-10c-1.9-4.4-6.1-7.7-11.5-7.7
	c-7.7,0-13.4,6.1-13.4,13.4c0,7.3,5.8,13.5,13.4,13.5c5.4,0,9.2-3.3,11.5-7.6h10c8.8,0,15.3-6.9,15.3-15.3l0-4.3
	c1.2,0.3,2.5,0.5,3.8,0.5h10.3c1.9,4.4,6.1,7.7,11.5,7.7c7.3,0,13.4-6,13.4-13.4C90.6,48.2,84.5,42.2,77.2,42.2z M43.9,26.9
	c0-6.3,5.4-11.5,11.5-11.5H68l0.4-1.3c1.2-3.7,4.6-6.4,8.8-6.4c5,0,9.6,4.3,9.6,9.6c0,5.3-4.6,9.6-9.6,9.6c-4.2,0-7.7-2.7-8.8-6.4
	L68,19.2H55.4c-4.2,0-7.7,3.4-7.7,7.7v7c-0.6-0.1-1.1-0.1-1.7-0.1c-0.2,0-0.3,0-0.5,0c-0.5-0.4-1.1-0.8-1.6-1.1V26.9z M36.2,38.4
	H23.9l-0.4,1.3C22.4,43.4,19,46,14.7,46c-5.4,0-9.6-4.3-9.6-9.6c0-5.3,4.2-9.6,9.6-9.6c4.2,0,7.7,2.7,8.8,6.4l0.4,1.3h12.3
	c1.4,0,2.7,0.3,3.9,0.7c-1,0.6-1.9,1.2-2.8,2.1c-0.3,0.3-0.6,0.7-0.9,1C36.3,38.4,36.3,38.4,36.2,38.4z M47.7,65.2
	c0,6.4-5,11.5-11.5,11.5H25.5h-1.5l-0.4,1.3c-1.2,3.7-4.6,6.4-8.8,6.4c-5.4,0-9.6-4.3-9.6-9.6c0-5.3,4.2-9.6,9.6-9.6
	c4.2,0,7.7,2.7,8.8,6.4l0.4,1.3h12.3c4.2,0,7.7-3.4,7.7-7.7v-7c0.7,0.1,1.4,0.2,2.1,0.2c0.1,0,0.1,0,0.2,0c0.5,0.4,1,0.7,1.6,1
	L47.7,65.2L47.7,65.2z M77.2,65.2c-4.2,0-7.7-2.7-8.8-6.4L68,57.5H55.4c-1.3,0-2.5-0.3-3.7-0.7c1.1-0.6,2.1-1.3,2.9-2.2
	c0.3-0.3,0.6-0.6,0.8-0.9H68l0.4-1.3c1.2-3.7,4.6-6.4,8.8-6.4c5,0,9.6,4.3,9.6,9.6C86.8,60.9,82.2,65.2,77.2,65.2z"/>
</svg>
