<?xml version="1.0" encoding="utf-8"?>
<!-- Generator: Adobe Illustrator 22.0.0, SVG Export Plug-In . SVG Version: 6.00 Build 0)  -->
<svg version="1.1" id="Ebene_1" xmlns="http://www.w3.org/2000/svg" xmlns:xlink="http://www.w3.org/1999/xlink" x="0px" y="0px"
	 viewBox="0 0 595.3 841.9" enable-background="new 0 0 595.3 841.9" xml:space="preserve">
<g>
	<linearGradient id="SVGID_1_" gradientUnits="userSpaceOnUse" x1="87" y1="417.5" x2="234" y2="417.5">
		<stop  offset="0" style="stop-color:#F4A88B"/>
		<stop  offset="1" style="stop-color:#D66087"/>
	</linearGradient>
	<polygon fill="url(#SVGID_1_)" points="125.3,478.3 125.3,429.4 186.1,429.4 234,390.9 234,330.5 195.7,330.5 195.7,397.3 
		125.3,397.3 125.3,330.5 87,330.5 87,504.5 92.7,504.5 	"/>
	<linearGradient id="SVGID_2_" gradientUnits="userSpaceOnUse" x1="195.7" y1="479.7279" x2="234" y2="479.7279">
		<stop  offset="0" style="stop-color:#F4A88B"/>
		<stop  offset="1" style="stop-color:#D66087"/>
	</linearGradient>
	<polygon fill="url(#SVGID_2_)" points="195.7,504.5 234,504.5 234,455 195.7,485.7 	"/>
	<linearGradient id="SVGID_3_" gradientUnits="userSpaceOnUse" x1="58.0431" y1="418.9216" x2="420.0568" y2="418.9216">
		<stop  offset="0" style="stop-color:#F4A88B"/>
		<stop  offset="1" style="stop-color:#D66087"/>
	</linearGradient>
	<path fill="url(#SVGID_3_)" d="M416.1,276.7c-6.2-7.8-17.5-9-25.3-2.8l-326,262c-7.8,6.2-9,17.6-2.8,25.3c3.5,4.4,8.7,6.7,14,6.7
		c4,0,8-1.3,11.3-3.9l326-262C421.1,295.8,422.3,284.4,416.1,276.7z"/>
	<linearGradient id="SVGID_4_" gradientUnits="userSpaceOnUse" x1="267.7" y1="347.2512" x2="309.1375" y2="347.2512">
		<stop  offset="0" style="stop-color:#F4A88B"/>
		<stop  offset="1" style="stop-color:#D66087"/>
	</linearGradient>
	<polygon fill="url(#SVGID_4_)" points="267.7,330.6 267.7,363.9 309.1,330.6 	"/>
	<linearGradient id="SVGID_5_" gradientUnits="userSpaceOnUse" x1="267.7" y1="421.3896" x2="421.7" y2="421.3896">
		<stop  offset="0" style="stop-color:#F4A88B"/>
		<stop  offset="1" style="stop-color:#D66087"/>
	</linearGradient>
	<path fill="url(#SVGID_5_)" d="M415.7,378.8c-4-10.7-9.5-19.6-16.6-26.8c-5.7-5.8-12.3-10.4-19.7-13.8l-31.8,25.6
		c3.4,0.7,6.5,1.6,9.3,2.7c6.4,2.7,11.6,6.6,15.5,11.6c3.9,5.1,6.7,11.1,8.4,18.2s2.6,15,2.6,23.8c0,9.6-1.3,17.7-3.7,24.4
		s-5.6,12.1-9.7,16.2c-4.1,4.1-8.7,7.1-13.9,8.9s-10.6,2.7-16.1,2.7v-0.1h-34.2v-74.9L267.7,428v76.6h75.1c13.3,0,24.9-2.2,34.7-6.7
		c9.8-4.5,18-10.6,24.6-18.4c6.5-7.8,11.4-17.1,14.7-27.8s4.9-22.4,4.9-35.1C421.7,402.1,419.7,389.5,415.7,378.8z"/>
</g>
</svg>
