<?xml version="1.0" encoding="utf-8"?>
<!-- Generator: Adobe Illustrator 22.0.0, SVG Export Plug-In . SVG Version: 6.00 Build 0)  -->
<svg version="1.1" id="Ebene_1" xmlns="http://www.w3.org/2000/svg" xmlns:xlink="http://www.w3.org/1999/xlink" x="0px" y="0px"
	 viewBox="0 0 841.9 595.3" enable-background="new 0 0 841.9 595.3" xml:space="preserve">
<linearGradient id="SVGID_1_" gradientUnits="userSpaceOnUse" x1="199.497" y1="315.8414" x2="650.7202" y2="315.8414">
	<stop  offset="0" style="stop-color:#F4A88B"/>
	<stop  offset="1" style="stop-color:#D66087"/>
</linearGradient>
<path fill="url(#SVGID_1_)" d="M585,261l2.2-2.2l-107-107l-2.3,2.3c-44.8-36.9-123.7-73.6-217.4-63.8l-2.5,9.9
	c103.5,14.8,145.9,54,187.7,86.1l-23.4,23.4l20.6,20.6c-0.1,0.1-0.2,0.1-0.3,0.2L203,470.2c-4.7,4.7-4.7,12.3,0,17l52.3,52.3
	c4.7,4.7,12.3,4.7,17,0L512,299.8c0.1-0.1,0.1-0.2,0.2-0.3l17.1,17.1l23.5-23.5c32.1,39.6,71.6,84.2,86.4,188.1l9.9-2.5
	C659,384.8,622.1,305.7,585,261z M264.5,507.7L234.8,478l215.7-215.7l29.7,29.7L264.5,507.7z"/>
</svg>
