<?xml version="1.0" encoding="utf-8"?>
<!-- Generator: Adobe Illustrator 22.0.0, SVG Export Plug-In . SVG Version: 6.00 Build 0)  -->
<svg version="1.1" id="Ebene_1" xmlns="http://www.w3.org/2000/svg" xmlns:xlink="http://www.w3.org/1999/xlink" x="0px" y="0px"
	 viewBox="0 0 24 24" enable-background="new 0 0 24 24" xml:space="preserve">
<linearGradient id="SVGID_1_" gradientUnits="userSpaceOnUse" x1="1.3375" y1="12.0771" x2="21.6375" y2="12.0771">
	<stop  offset="0" style="stop-color:#F4A88B"/>
	<stop  offset="1" style="stop-color:#D66087"/>
</linearGradient>
<path fill="url(#SVGID_1_)" d="M12.9,13.4H6.3c-0.6,0-1-0.4-1-1s0.4-1,1-1h3.2L7.8,9.7L3.7,5.6C3.6,5.5,3.6,5.4,3.5,5.3L3.3,5.1v3.2
	c0,0.6-0.4,1-1,1c-0.6,0-1-0.4-1-1V1.7h6.6c0.6,0,1,0.4,1,1c0,0.6-0.4,1-1,1H4.7l1.7,1.7l4.1,4.1c0.1,0.1,0.2,0.2,0.2,0.3l0.2,0.2
	V6.7c0-0.6,0.4-1,1-1s1,0.4,1,1V13.4z M15.1,9.4c-0.6,0-1,0.4-1,1s0.4,1,1,1c2.5,0,4.5,2,4.5,4.5s-2,4.5-4.5,4.5s-4.5-2-4.5-4.5
	c0-0.6-0.4-1-1-1c-0.6,0-1,0.4-1,1c0,3.6,2.9,6.5,6.5,6.5c3.6,0,6.5-2.9,6.5-6.5S18.7,9.4,15.1,9.4z"/>
</svg>
